{"title":"Mr.Peabody.And.Sherman.2014.SRsink.BRRip.XviD-zar.avi","uid":11461995,"size":790472968,"categoryP":"video","categoryS":"movies","magnet":"?xt=urn:btih:fbfe08183c424cf329fb83fb4d03ec3802808d7c&amp;dn=Mr.Peabody.And.Sherman.2014.SRsink.BRRip.XviD-zar.avi&amp;tr=udp%3A%2F%2Ftracker.openbittorrent.com%3A80&amp;tr=udp%3A%2F%2Fopen.demonii.com%3A1337&amp;tr=udp%3A%2F%2Ftracker.coppersurfer.tk%3A6969&amp;tr=udp%3A%2F%2Fexodus.desync.com%3A6969","seeders":3,"leechers":0,"uploader":"stzar","files":1,"time":1415997572,"description":"General\nFormat                         : AVI\nFormat/Info                    : Audio Video Interleave\nFile size                      : 754 MiB\nDuration                       : 1h 32mn\nOverall bit rate               : 1 139 Kbps\nWriting application            : Lavf51.12.1\n\nVideo\nID                             : 0\nFormat                         : xvid\nCodec ID                       : xvid\nDuration                       : 1h 32mn\nBit rate                       : 999 Kbps\nWidth                          : 720 pixels\nHeight                         : 400 pixels\nDisplay aspect ratio           : 16:9\nFrame rate                     : 23.976 fps\nBits/(Pixel*Frame)             : 0.145\nStream size                    : 661 MiB (88%)\n\nAudio\nID                             : 1\nFormat                         : MPEG Audio\nFormat version                 : Version 1\nFormat profile                 : Layer 3\nMode                           : Joint stereo\nMode extension                 : MS Stereo\nCodec ID                       : 55\nCodec ID/Hint                  : MP3\nDuration                       : 1h 32mn\nBit rate mode                  : Constant\nBit rate                       : 128 Kbps\nChannel(s)                     : 2 channels\nSampling rate                  : 44.1 KHz\nCompression mode               : Lossy\nStream size                    : 84.7 MiB (11%)","torrent":{"xt":"urn:btih:fbfe08183c424cf329fb83fb4d03ec3802808d7c","amp;dn":"Mr.Peabody.And.Sherman.2014.SRsink.BRRip.XviD-zar.avi","amp;tr":["udp%3A%2F%2Ftracker.openbittorrent.com%3A80","udp%3A%2F%2Fopen.demonii.com%3A1337","udp%3A%2F%2Ftracker.coppersurfer.tk%3A6969","udp%3A%2F%2Fexodus.desync.com%3A6969"],"infoHash":"fbfe08183c424cf329fb83fb4d03ec3802808d7c","infoHashBuffer":{"type":"Buffer","data":[251,254,8,24,60,66,76,243,41,251,131,251,77,3,236,56,2,128,141,124]},"announce":[],"urlList":[]}}